<svg xmlns="http://www.w3.org/2000/svg" width="1664" height="874" viewBox="0 0 1664 874">
<defs>
  <marker id="arr" viewBox="0 0 10 10" refX="10" refY="5" markerWidth="7" markerHeight="7" orient="auto">
    <path d="M 0 1.5 L 10 5 L 0 8.5 z" fill="#8A8A8A" />
  </marker>
  <marker id="arr-branch" viewBox="0 0 10 10" refX="10" refY="5" markerWidth="7" markerHeight="7" orient="auto">
    <path d="M 0 1.5 L 10 5 L 0 8.5 z" fill="#C4A882" />
  </marker>
  <filter id="shadow" x="-4%" y="-4%" width="108%" height="116%">
    <feDropShadow dx="0" dy="1" stdDeviation="2" flood-color="#000" flood-opacity="0.06"/>
  </filter>
</defs>
<rect width="1664" height="874" fill="#FAF8F5" rx="12"/>
  <path d="M 832 116 C 832 142, 832 142, 832 168" fill="none" stroke="#8A8A8A" stroke-width="1.5" marker-end="url(#arr)" />
  <path d="M 832 224 C 832 250, 222 250, 222 276" fill="none" stroke="#C4A882" stroke-width="1.5" stroke-dasharray="6,4" marker-end="url(#arr-branch)" />
  <path d="M 832 224 C 832 250, 631.5 250, 631.5 276" fill="none" stroke="#C4A882" stroke-width="1.5" stroke-dasharray="6,4" marker-end="url(#arr-branch)" />
  <path d="M 832 224 C 832 250, 1057 250, 1057 276" fill="none" stroke="#C4A882" stroke-width="1.5" stroke-dasharray="6,4" marker-end="url(#arr-branch)" />
  <path d="M 832 224 C 832 250, 1457.5 250, 1457.5 276" fill="none" stroke="#C4A882" stroke-width="1.5" stroke-dasharray="6,4" marker-end="url(#arr-branch)" />
  <path d="M 222 332 C 222 358, 625.5 358, 625.5 384" fill="none" stroke="#8A8A8A" stroke-width="1.5" marker-end="url(#arr)" />
  <path d="M 631.5 332 C 631.5 358, 625.5 358, 625.5 384" fill="none" stroke="#8A8A8A" stroke-width="1.5" marker-end="url(#arr)" />
  <path d="M 1057 332 C 1057 358, 625.5 358, 625.5 384" fill="none" stroke="#8A8A8A" stroke-width="1.5" marker-end="url(#arr)" />
  <path d="M 1457.5 332 C 1457.5 358, 625.5 358, 625.5 384" fill="none" stroke="#8A8A8A" stroke-width="1.5" marker-end="url(#arr)" />
  <path d="M 222 332 C 222 358, 963.5 358, 963.5 384" fill="none" stroke="#8A8A8A" stroke-width="1.5" marker-end="url(#arr)" />
  <path d="M 631.5 332 C 631.5 358, 963.5 358, 963.5 384" fill="none" stroke="#8A8A8A" stroke-width="1.5" marker-end="url(#arr)" />
  <path d="M 1057 332 C 1057 358, 963.5 358, 963.5 384" fill="none" stroke="#8A8A8A" stroke-width="1.5" marker-end="url(#arr)" />
  <path d="M 1457.5 332 C 1457.5 358, 963.5 358, 963.5 384" fill="none" stroke="#8A8A8A" stroke-width="1.5" marker-end="url(#arr)" />
  <path d="M 963.5 440 C 963.5 466, 832 466, 832 492" fill="none" stroke="#8A8A8A" stroke-width="1.5" marker-end="url(#arr)" />
  <path d="M 832 548 C 832 574, 832 574, 832 600" fill="none" stroke="#8A8A8A" stroke-width="1.5" marker-end="url(#arr)" />
  <path d="M 832 656 C 832 682, 832 682, 832 708" fill="none" stroke="#8A8A8A" stroke-width="1.5" marker-end="url(#arr)" />
  <rect x="662" y="60" width="340" height="56" rx="10" fill="#FFFFFF" stroke="#6E8AA4" stroke-width="1.5" filter="url(#shadow)" />
  <rect x="662" y="68" width="3" height="40" rx="1.5" fill="#6E8AA4" />
  <circle cx="680" cy="88" r="11" fill="#6E8AA4" />
  <text x="680" y="92" text-anchor="middle" font-family="'Palatino Linotype', serif" font-size="10" font-weight="700" fill="#FAFAFA">1</text>
  <text x="696" y="92" font-family="'Palatino Linotype', 'Book Antiqua', Palatino, serif" font-size="12" fill="#3A3A3A" >Phase 1: Full Document Parsing &amp; Comprehension</text>
  <rect x="709" y="168" width="246" height="56" rx="10" fill="rgba(93,128,87,0.06)" stroke="#6E8AA4" stroke-width="2" stroke-dasharray="6,3" filter="url(#shadow)" />
  <rect x="709" y="176" width="3" height="40" rx="1.5" fill="#6E8AA4" />
  <circle cx="727" cy="196" r="11" fill="#6E8AA4" />
  <text x="727" y="200" text-anchor="middle" font-family="'Palatino Linotype', serif" font-size="10" font-weight="700" fill="#FAFAFA">2</text>
  <text x="743" y="200" font-family="'Palatino Linotype', 'Book Antiqua', Palatino, serif" font-size="12" fill="#3A3A3A" font-style='italic'>Document Comprehension Complete</text>
  <polygon points="939,190 945,196 939,202 933,196" fill="#5D8057" opacity="0.6" />
  <rect x="40" y="276" width="364" height="56" rx="10" fill="#FFFFFF" stroke="#6E8AA4" stroke-width="1.5" filter="url(#shadow)" />
  <rect x="40" y="284" width="3" height="40" rx="1.5" fill="#6E8AA4" />
  <circle cx="58" cy="304" r="11" fill="#6E8AA4" />
  <text x="58" y="308" text-anchor="middle" font-family="'Palatino Linotype', serif" font-size="10" font-weight="700" fill="#FAFAFA">3</text>
  <text x="74" y="308" font-family="'Palatino Linotype', 'Book Antiqua', Palatino, serif" font-size="12" fill="#3A3A3A" >Phase 2: Logical Structure &amp; Argument Flow Diagram</text>
  <rect x="440" y="276" width="383" height="56" rx="10" fill="#FFFFFF" stroke="#6E8AA4" stroke-width="1.5" filter="url(#shadow)" />
  <rect x="440" y="284" width="3" height="40" rx="1.5" fill="#6E8AA4" />
  <circle cx="458" cy="304" r="11" fill="#6E8AA4" />
  <text x="458" y="308" text-anchor="middle" font-family="'Palatino Linotype', serif" font-size="10" font-weight="700" fill="#FAFAFA">4</text>
  <text x="474" y="308" font-family="'Palatino Linotype', 'Book Antiqua', Palatino, serif" font-size="12" fill="#3A3A3A" >Phase 3: Novelty Analysis &amp; SAE Literature Background</text>
  <rect x="859" y="276" width="396" height="56" rx="10" fill="#FFFFFF" stroke="#6E8AA4" stroke-width="1.5" filter="url(#shadow)" />
  <rect x="859" y="284" width="3" height="40" rx="1.5" fill="#6E8AA4" />
  <circle cx="877" cy="304" r="11" fill="#6E8AA4" />
  <text x="877" y="308" text-anchor="middle" font-family="'Palatino Linotype', serif" font-size="10" font-weight="700" fill="#FAFAFA">5</text>
  <text x="893" y="308" font-family="'Palatino Linotype', 'Book Antiqua', Palatino, serif" font-size="12" fill="#3A3A3A" >Phase 4a: Mathematical &amp; Theoretical Rigor Verification</text>
  <rect x="1291" y="276" width="333" height="56" rx="10" fill="#FFFFFF" stroke="#6E8AA4" stroke-width="1.5" filter="url(#shadow)" />
  <rect x="1291" y="284" width="3" height="40" rx="1.5" fill="#6E8AA4" />
  <circle cx="1309" cy="304" r="11" fill="#6E8AA4" />
  <text x="1309" y="308" text-anchor="middle" font-family="'Palatino Linotype', serif" font-size="10" font-weight="700" fill="#FAFAFA">6</text>
  <text x="1325" y="308" font-family="'Palatino Linotype', 'Book Antiqua', Palatino, serif" font-size="12" fill="#3A3A3A" >Phase 4b: Experimental Methodology Assessment</text>
  <rect x="512" y="384" width="227" height="56" rx="10" fill="rgba(93,128,87,0.06)" stroke="#6E8AA4" stroke-width="2" stroke-dasharray="6,3" filter="url(#shadow)" />
  <rect x="512" y="392" width="3" height="40" rx="1.5" fill="#6E8AA4" />
  <circle cx="530" cy="412" r="11" fill="#6E8AA4" />
  <text x="530" y="416" text-anchor="middle" font-family="'Palatino Linotype', serif" font-size="10" font-weight="700" fill="#FAFAFA">7</text>
  <text x="546" y="416" font-family="'Palatino Linotype', 'Book Antiqua', Palatino, serif" font-size="12" fill="#3A3A3A" font-style='italic'>All Analysis Phases Complete</text>
  <polygon points="723,406 729,412 723,418 717,412" fill="#5D8057" opacity="0.6" />
  <rect x="775" y="384" width="377" height="56" rx="10" fill="#FFFFFF" stroke="#6E8AA4" stroke-width="1.5" filter="url(#shadow)" />
  <rect x="775" y="392" width="3" height="40" rx="1.5" fill="#6E8AA4" />
  <circle cx="793" cy="412" r="11" fill="#6E8AA4" />
  <text x="793" y="416" text-anchor="middle" font-family="'Palatino Linotype', serif" font-size="10" font-weight="700" fill="#FAFAFA">8</text>
  <text x="809" y="416" font-family="'Palatino Linotype', 'Book Antiqua', Palatino, serif" font-size="12" fill="#3A3A3A" >Phase 5: Merits, Shortcomings &amp; Revision Suggestions</text>
  <rect x="731" y="492" width="202" height="56" rx="10" fill="rgba(93,128,87,0.06)" stroke="#6E8AA4" stroke-width="2" stroke-dasharray="6,3" filter="url(#shadow)" />
  <rect x="731" y="500" width="3" height="40" rx="1.5" fill="#6E8AA4" />
  <circle cx="749" cy="520" r="11" fill="#6E8AA4" />
  <text x="749" y="524" text-anchor="middle" font-family="'Palatino Linotype', serif" font-size="10" font-weight="700" fill="#FAFAFA">9</text>
  <text x="765" y="524" font-family="'Palatino Linotype', 'Book Antiqua', Palatino, serif" font-size="12" fill="#3A3A3A" font-style='italic'>Review Analysis Complete</text>
  <polygon points="917,514 923,520 917,526 911,520" fill="#5D8057" opacity="0.6" />
  <rect x="656" y="600" width="352" height="56" rx="10" fill="#FFFFFF" stroke="#6E8AA4" stroke-width="1.5" filter="url(#shadow)" />
  <rect x="656" y="608" width="3" height="40" rx="1.5" fill="#6E8AA4" />
  <circle cx="674" cy="628" r="11" fill="#6E8AA4" />
  <text x="674" y="632" text-anchor="middle" font-family="'Palatino Linotype', serif" font-size="10" font-weight="700" fill="#FAFAFA">10</text>
  <text x="690" y="632" font-family="'Palatino Linotype', 'Book Antiqua', Palatino, serif" font-size="12" fill="#3A3A3A" >Phase 6: LaTeX Report Assembly &amp; PDF Compilation</text>
  <rect x="732" y="708" width="200" height="56" rx="10" fill="rgba(93,128,87,0.06)" stroke="#6E8AA4" stroke-width="2" stroke-dasharray="6,3" filter="url(#shadow)" />
  <rect x="732" y="716" width="3" height="40" rx="1.5" fill="#6E8AA4" />
  <circle cx="750" cy="736" r="11" fill="#6E8AA4" />
  <text x="750" y="740" text-anchor="middle" font-family="'Palatino Linotype', serif" font-size="10" font-weight="700" fill="#FAFAFA">11</text>
  <text x="766" y="740" font-family="'Palatino Linotype', 'Book Antiqua', Palatino, serif" font-size="12" fill="#3A3A3A" font-style='italic'>Review Report Complete</text>
  <polygon points="916,730 922,736 916,742 910,736" fill="#5D8057" opacity="0.6" />

  <!-- Legend -->
  <line x1="24" y1="824" x2="1640" y2="824" stroke="#E0DCD8" stroke-width="1" />
  <rect x="24" y="834" width="60" height="22" rx="6" fill="#FFFFFF" stroke="#6E8AA4" stroke-width="1.5" />
  <text x="92" y="849" font-family="'Palatino Linotype', serif" font-size="11" fill="#8A8A8A">Task</text>
  <rect x="144" y="834" width="60" height="22" rx="6" fill="rgba(93,128,87,0.06)" stroke="#5D8057" stroke-width="2" stroke-dasharray="6,3" />
  <text x="212" y="849" font-family="'Palatino Linotype', serif" font-size="11" fill="#8A8A8A">Milestone</text>
  <line x1="294" y1="845" x2="334" y2="845" stroke="#8A8A8A" stroke-width="1.5" marker-end="url(#arr)" />
  <text x="342" y="849" font-family="'Palatino Linotype', serif" font-size="11" fill="#8A8A8A">Dependency</text>
  <line x1="424" y1="845" x2="464" y2="845" stroke="#C4A882" stroke-width="1.5" stroke-dasharray="6,4" marker-end="url(#arr-branch)" />
  <text x="472" y="849" font-family="'Palatino Linotype', serif" font-size="11" fill="#8A8A8A">Parallel branch</text>
</svg>
