<svg viewBox="0 0 800 360" xmlns="http://www.w3.org/2000/svg" role="img" aria-label="Reading, Not Thinking workflow">
  <style>
    text { font-family: 'Palatino Linotype', 'Book Antiqua', Palatino, serif; fill: #3A3A3A; }
    .label { font-size: 14px; }
    .label-small { font-size: 12px; fill: #6A6A6A; }
    .label-bold { font-size: 14px; font-weight: 600; }
    .node-blue { fill: rgba(143, 168, 184, 0.15); stroke: #8FA8B8; stroke-width: 1.5; rx: 8; }
    .node-green { fill: rgba(168, 184, 160, 0.15); stroke: #A8B8A0; stroke-width: 1.5; rx: 8; }
    .node-pink { fill: rgba(196, 168, 130, 0.15); stroke: #C4A882; stroke-width: 1.5; rx: 8; }
    .node-teal { fill: rgba(127, 168, 160, 0.15); stroke: #7FA8A0; stroke-width: 1.5; rx: 8; }
    .arrow { stroke: #8FA8B8; stroke-width: 1.5; fill: none; marker-end: url(#arrowhead); }
  </style>
  <defs>
    <marker id="arrowhead" viewBox="0 0 10 10" refX="9" refY="5" markerWidth="6" markerHeight="6" orient="auto">
      <path d="M 0 0 L 10 5 L 0 10 z" fill="#8FA8B8"/>
    </marker>
  </defs>

  <text x="30" y="30" class="label-bold">07 · Reading, Not Thinking — Core Workflow</text>
  <text x="30" y="48" class="label-small">Rank #7 · arXiv 2603.09095</text>

  <rect x="30" y="80" width="140" height="58" class="node-blue" />
  <text x="45" y="113" class="label">Data Collection</text>

  <rect x="200" y="80" width="170" height="58" class="node-green" />
  <text x="214" y="113" class="label">Structured Task Taxonomy</text>

  <rect x="400" y="80" width="150" height="58" class="node-pink" />
  <text x="414" y="113" class="label">Model Evaluation</text>

  <rect x="580" y="80" width="170" height="58" class="node-teal" />
  <text x="594" y="113" class="label">Adaptation / Fine-Tuning</text>

  <rect x="290" y="220" width="220" height="62" class="node-green" />
  <text x="313" y="248" class="label">Benchmark Findings</text>
  <text x="313" y="267" class="label-small">Evaluation + interpretation loop</text>

  <path d="M170 109 L200 109" class="arrow" />
  <path d="M370 109 L400 109" class="arrow" />
  <path d="M550 109 L580 109" class="arrow" />
  <path d="M665 138 C 665 185, 555 205, 510 230" class="arrow" />
  <path d="M290 230 C 240 205, 160 180, 130 138" class="arrow" />
  <text x="535" y="198" class="label-small">feedback</text>
  <text x="162" y="198" class="label-small">error analysis</text>
</svg>
