<svg xmlns="http://www.w3.org/2000/svg" width="914" height="1090" viewBox="0 0 914 1090">
<defs>
  <marker id="arr" viewBox="0 0 10 10" refX="10" refY="5" markerWidth="7" markerHeight="7" orient="auto">
    <path d="M 0 1.5 L 10 5 L 0 8.5 z" fill="#8A8A8A" />
  </marker>
  <marker id="arr-branch" viewBox="0 0 10 10" refX="10" refY="5" markerWidth="7" markerHeight="7" orient="auto">
    <path d="M 0 1.5 L 10 5 L 0 8.5 z" fill="#C4A882" />
  </marker>
  <filter id="shadow" x="-4%" y="-4%" width="108%" height="116%">
    <feDropShadow dx="0" dy="1" stdDeviation="2" flood-color="#000" flood-opacity="0.06"/>
  </filter>
</defs>
<rect width="914" height="1090" fill="#FAF8F5" rx="12"/>
  <path d="M 457 116 C 457 142, 457 142, 457 168" fill="none" stroke="#8A8A8A" stroke-width="1.5" marker-end="url(#arr)" />
  <path d="M 457 224 C 457 250, 278.5 250, 278.5 276" fill="none" stroke="#C4A882" stroke-width="1.5" stroke-dasharray="6,4" marker-end="url(#arr-branch)" />
  <path d="M 457 224 C 457 250, 641.5 250, 641.5 276" fill="none" stroke="#C4A882" stroke-width="1.5" stroke-dasharray="6,4" marker-end="url(#arr-branch)" />
  <path d="M 278.5 332 C 278.5 358, 457 358, 457 384" fill="none" stroke="#8A8A8A" stroke-width="1.5" marker-end="url(#arr)" />
  <path d="M 641.5 332 C 641.5 358, 457 358, 457 384" fill="none" stroke="#8A8A8A" stroke-width="1.5" marker-end="url(#arr)" />
  <path d="M 457 440 C 457 466, 178.5 466, 178.5 492" fill="none" stroke="#C4A882" stroke-width="1.5" stroke-dasharray="6,4" marker-end="url(#arr-branch)" />
  <path d="M 457 440 C 457 466, 466.5 466, 466.5 492" fill="none" stroke="#C4A882" stroke-width="1.5" stroke-dasharray="6,4" marker-end="url(#arr-branch)" />
  <path d="M 457 440 C 457 466, 745 466, 745 492" fill="none" stroke="#C4A882" stroke-width="1.5" stroke-dasharray="6,4" marker-end="url(#arr-branch)" />
  <path d="M 178.5 548 C 178.5 574, 297.5 574, 297.5 600" fill="none" stroke="#8A8A8A" stroke-width="1.5" marker-end="url(#arr)" />
  <path d="M 466.5 548 C 466.5 574, 297.5 574, 297.5 600" fill="none" stroke="#8A8A8A" stroke-width="1.5" marker-end="url(#arr)" />
  <path d="M 745 548 C 745 574, 297.5 574, 297.5 600" fill="none" stroke="#8A8A8A" stroke-width="1.5" marker-end="url(#arr)" />
  <path d="M 178.5 548 C 178.5 574, 610.5 574, 610.5 600" fill="none" stroke="#8A8A8A" stroke-width="1.5" marker-end="url(#arr)" />
  <path d="M 466.5 548 C 466.5 574, 610.5 574, 610.5 600" fill="none" stroke="#8A8A8A" stroke-width="1.5" marker-end="url(#arr)" />
  <path d="M 745 548 C 745 574, 610.5 574, 610.5 600" fill="none" stroke="#8A8A8A" stroke-width="1.5" marker-end="url(#arr)" />
  <path d="M 297.5 656 C 297.5 682, 457 682, 457 708" fill="none" stroke="#8A8A8A" stroke-width="1.5" marker-end="url(#arr)" />
  <path d="M 610.5 656 C 610.5 682, 457 682, 457 708" fill="none" stroke="#8A8A8A" stroke-width="1.5" marker-end="url(#arr)" />
  <path d="M 457 764 C 457 790, 457 790, 457 816" fill="none" stroke="#8A8A8A" stroke-width="1.5" marker-end="url(#arr)" />
  <path d="M 457 872 C 457 898, 457 898, 457 924" fill="none" stroke="#8A8A8A" stroke-width="1.5" marker-end="url(#arr)" />
  <rect x="340.5" y="60" width="233" height="56" rx="10" fill="#FFFFFF" stroke="#6E8AA4" stroke-width="1.5" filter="url(#shadow)" />
  <rect x="340.5" y="68" width="3" height="40" rx="1.5" fill="#6E8AA4" />
  <circle cx="358.5" cy="88" r="11" fill="#6E8AA4" />
  <text x="358.5" y="92" text-anchor="middle" font-family="'Palatino Linotype', serif" font-size="10" font-weight="700" fill="#FAFAFA">1</text>
  <text x="374.5" y="92" font-family="'Palatino Linotype', 'Book Antiqua', Palatino, serif" font-size="12" fill="#3A3A3A" >Initialize Analysis Workspace</text>
  <rect x="303" y="168" width="308" height="56" rx="10" fill="rgba(93,128,87,0.06)" stroke="#6E8AA4" stroke-width="2" stroke-dasharray="6,3" filter="url(#shadow)" />
  <rect x="303" y="176" width="3" height="40" rx="1.5" fill="#6E8AA4" />
  <circle cx="321" cy="196" r="11" fill="#6E8AA4" />
  <text x="321" y="200" text-anchor="middle" font-family="'Palatino Linotype', serif" font-size="10" font-weight="700" fill="#FAFAFA">2</text>
  <text x="337" y="200" font-family="'Palatino Linotype', 'Book Antiqua', Palatino, serif" font-size="12" fill="#3A3A3A" font-style='italic'>Confirm Peer Scope And Supplementary Docs</text>
  <polygon points="595,190 601,196 595,202 589,196" fill="#5D8057" opacity="0.6" />
  <rect x="112" y="276" width="333" height="56" rx="10" fill="#FFFFFF" stroke="#6E8AA4" stroke-width="1.5" filter="url(#shadow)" />
  <rect x="112" y="284" width="3" height="40" rx="1.5" fill="#6E8AA4" />
  <circle cx="130" cy="304" r="11" fill="#6E8AA4" />
  <text x="130" y="308" text-anchor="middle" font-family="'Palatino Linotype', serif" font-size="10" font-weight="700" fill="#FAFAFA">3</text>
  <text x="146" y="308" font-family="'Palatino Linotype', 'Book Antiqua', Palatino, serif" font-size="12" fill="#3A3A3A" >Retrieve SEC, Proxy, IR, And Earnings Sources</text>
  <rect x="481" y="276" width="321" height="56" rx="10" fill="#FFFFFF" stroke="#6E8AA4" stroke-width="1.5" filter="url(#shadow)" />
  <rect x="481" y="284" width="3" height="40" rx="1.5" fill="#6E8AA4" />
  <circle cx="499" cy="304" r="11" fill="#6E8AA4" />
  <text x="499" y="308" text-anchor="middle" font-family="'Palatino Linotype', serif" font-size="10" font-weight="700" fill="#FAFAFA">4</text>
  <text x="515" y="308" font-family="'Palatino Linotype', 'Book Antiqua', Palatino, serif" font-size="12" fill="#3A3A3A" >Pull Yahoo Finance And Industry Market Data</text>
  <rect x="309" y="384" width="296" height="56" rx="10" fill="#FFFFFF" stroke="#6E8AA4" stroke-width="1.5" filter="url(#shadow)" />
  <rect x="309" y="392" width="3" height="40" rx="1.5" fill="#6E8AA4" />
  <circle cx="327" cy="412" r="11" fill="#6E8AA4" />
  <text x="327" y="416" text-anchor="middle" font-family="'Palatino Linotype', serif" font-size="10" font-weight="700" fill="#FAFAFA">5</text>
  <text x="343" y="416" font-family="'Palatino Linotype', 'Book Antiqua', Palatino, serif" font-size="12" fill="#3A3A3A" >Normalize Five-Year Financial Fact Base</text>
  <rect x="40" y="492" width="277" height="56" rx="10" fill="#FFFFFF" stroke="#6E8AA4" stroke-width="1.5" filter="url(#shadow)" />
  <rect x="40" y="500" width="3" height="40" rx="1.5" fill="#6E8AA4" />
  <circle cx="58" cy="520" r="11" fill="#6E8AA4" />
  <text x="58" y="524" text-anchor="middle" font-family="'Palatino Linotype', serif" font-size="10" font-weight="700" fill="#FAFAFA">6</text>
  <text x="74" y="524" font-family="'Palatino Linotype', 'Book Antiqua', Palatino, serif" font-size="12" fill="#3A3A3A" >Compute CA Score And Quant Narrative</text>
  <rect x="353" y="492" width="227" height="56" rx="10" fill="#FFFFFF" stroke="#6E8AA4" stroke-width="1.5" filter="url(#shadow)" />
  <rect x="353" y="500" width="3" height="40" rx="1.5" fill="#6E8AA4" />
  <circle cx="371" cy="520" r="11" fill="#6E8AA4" />
  <text x="371" y="524" text-anchor="middle" font-family="'Palatino Linotype', serif" font-size="10" font-weight="700" fill="#FAFAFA">7</text>
  <text x="387" y="524" font-family="'Palatino Linotype', 'Book Antiqua', Palatino, serif" font-size="12" fill="#3A3A3A" >Run 7 Powers Moat Assessment</text>
  <rect x="616" y="492" width="258" height="56" rx="10" fill="#FFFFFF" stroke="#6E8AA4" stroke-width="1.5" filter="url(#shadow)" />
  <rect x="616" y="500" width="3" height="40" rx="1.5" fill="#6E8AA4" />
  <circle cx="634" cy="520" r="11" fill="#6E8AA4" />
  <text x="634" y="524" text-anchor="middle" font-family="'Palatino Linotype', serif" font-size="10" font-weight="700" fill="#FAFAFA">8</text>
  <text x="650" y="524" font-family="'Palatino Linotype', 'Book Antiqua', Palatino, serif" font-size="12" fill="#3A3A3A" >Execute Anti-Fragility Core Tests</text>
  <rect x="162" y="600" width="271" height="56" rx="10" fill="#FFFFFF" stroke="#6E8AA4" stroke-width="1.5" filter="url(#shadow)" />
  <rect x="162" y="608" width="3" height="40" rx="1.5" fill="#6E8AA4" />
  <circle cx="180" cy="628" r="11" fill="#6E8AA4" />
  <text x="180" y="632" text-anchor="middle" font-family="'Palatino Linotype', serif" font-size="10" font-weight="700" fill="#FAFAFA">9</text>
  <text x="196" y="632" font-family="'Palatino Linotype', 'Book Antiqua', Palatino, serif" font-size="12" fill="#3A3A3A" >Scenario Model And Thesis Synthesis</text>
  <rect x="469" y="600" width="283" height="56" rx="10" fill="#FFFFFF" stroke="#6E8AA4" stroke-width="1.5" filter="url(#shadow)" />
  <rect x="469" y="608" width="3" height="40" rx="1.5" fill="#6E8AA4" />
  <circle cx="487" cy="628" r="11" fill="#6E8AA4" />
  <text x="487" y="632" text-anchor="middle" font-family="'Palatino Linotype', serif" font-size="10" font-weight="700" fill="#FAFAFA">10</text>
  <text x="503" y="632" font-family="'Palatino Linotype', 'Book Antiqua', Palatino, serif" font-size="12" fill="#3A3A3A" >Create Required Charts And Figure Set</text>
  <rect x="296.5" y="708" width="321" height="56" rx="10" fill="#FFFFFF" stroke="#6E8AA4" stroke-width="1.5" filter="url(#shadow)" />
  <rect x="296.5" y="716" width="3" height="40" rx="1.5" fill="#6E8AA4" />
  <circle cx="314.5" cy="736" r="11" fill="#6E8AA4" />
  <text x="314.5" y="740" text-anchor="middle" font-family="'Palatino Linotype', serif" font-size="10" font-weight="700" fill="#FAFAFA">11</text>
  <text x="330.5" y="740" font-family="'Palatino Linotype', 'Book Antiqua', Palatino, serif" font-size="12" fill="#3A3A3A" >Assemble Professional Report And Render PDF</text>
  <rect x="328" y="816" width="258" height="56" rx="10" fill="rgba(93,128,87,0.06)" stroke="#6E8AA4" stroke-width="2" stroke-dasharray="6,3" filter="url(#shadow)" />
  <rect x="328" y="824" width="3" height="40" rx="1.5" fill="#6E8AA4" />
  <circle cx="346" cy="844" r="11" fill="#6E8AA4" />
  <text x="346" y="848" text-anchor="middle" font-family="'Palatino Linotype', serif" font-size="10" font-weight="700" fill="#FAFAFA">12</text>
  <text x="362" y="848" font-family="'Palatino Linotype', 'Book Antiqua', Palatino, serif" font-size="12" fill="#3A3A3A" font-style='italic'>Human Quality Review And Sign-Off</text>
  <polygon points="570,838 576,844 570,850 564,844" fill="#5D8057" opacity="0.6" />
  <rect x="309" y="924" width="296" height="56" rx="10" fill="rgba(93,128,87,0.06)" stroke="#6E8AA4" stroke-width="2" stroke-dasharray="6,3" filter="url(#shadow)" />
  <rect x="309" y="932" width="3" height="40" rx="1.5" fill="#6E8AA4" />
  <circle cx="327" cy="952" r="11" fill="#6E8AA4" />
  <text x="327" y="956" text-anchor="middle" font-family="'Palatino Linotype', serif" font-size="10" font-weight="700" fill="#FAFAFA">13</text>
  <text x="343" y="956" font-family="'Palatino Linotype', 'Book Antiqua', Palatino, serif" font-size="12" fill="#3A3A3A" font-style='italic'>Competitive Advantage Analysis Complete</text>
  <polygon points="589,946 595,952 589,958 583,952" fill="#5D8057" opacity="0.6" />

  <!-- Legend -->
  <line x1="24" y1="1040" x2="890" y2="1040" stroke="#E0DCD8" stroke-width="1" />
  <rect x="24" y="1050" width="60" height="22" rx="6" fill="#FFFFFF" stroke="#6E8AA4" stroke-width="1.5" />
  <text x="92" y="1065" font-family="'Palatino Linotype', serif" font-size="11" fill="#8A8A8A">Task</text>
  <rect x="144" y="1050" width="60" height="22" rx="6" fill="rgba(93,128,87,0.06)" stroke="#5D8057" stroke-width="2" stroke-dasharray="6,3" />
  <text x="212" y="1065" font-family="'Palatino Linotype', serif" font-size="11" fill="#8A8A8A">Milestone</text>
  <line x1="294" y1="1061" x2="334" y2="1061" stroke="#8A8A8A" stroke-width="1.5" marker-end="url(#arr)" />
  <text x="342" y="1065" font-family="'Palatino Linotype', serif" font-size="11" fill="#8A8A8A">Dependency</text>
  <line x1="424" y1="1061" x2="464" y2="1061" stroke="#C4A882" stroke-width="1.5" stroke-dasharray="6,4" marker-end="url(#arr-branch)" />
  <text x="472" y="1065" font-family="'Palatino Linotype', serif" font-size="11" fill="#8A8A8A">Parallel branch</text>
</svg>
