<svg xmlns="http://www.w3.org/2000/svg" width="900" height="658" viewBox="0 0 900 658">
<defs>
  <marker id="arr" viewBox="0 0 10 10" refX="10" refY="5" markerWidth="7" markerHeight="7" orient="auto">
    <path d="M 0 1.5 L 10 5 L 0 8.5 z" fill="#8A8A8A" />
  </marker>
  <marker id="arr-branch" viewBox="0 0 10 10" refX="10" refY="5" markerWidth="7" markerHeight="7" orient="auto">
    <path d="M 0 1.5 L 10 5 L 0 8.5 z" fill="#C4A882" />
  </marker>
  <filter id="shadow" x="-4%" y="-4%" width="108%" height="116%">
    <feDropShadow dx="0" dy="1" stdDeviation="2" flood-color="#000" flood-opacity="0.06"/>
  </filter>
</defs>
<rect width="900" height="658" fill="#FAF8F5" rx="12"/>
  <path d="M 432.5 116 C 432.5 142, 153.5 142, 153.5 168" fill="none" stroke="#8A8A8A" stroke-width="1.5" marker-end="url(#arr)" />
  <path d="M 432.5 116 C 432.5 142, 423 142, 423 168" fill="none" stroke="#8A8A8A" stroke-width="1.5" marker-end="url(#arr)" />
  <path d="M 432.5 116 C 432.5 142, 702 142, 702 168" fill="none" stroke="#8A8A8A" stroke-width="1.5" marker-end="url(#arr)" />
  <path d="M 153.5 224 C 153.5 250, 432.5 250, 432.5 276" fill="none" stroke="#8A8A8A" stroke-width="1.5" marker-end="url(#arr)" />
  <path d="M 423 224 C 423 250, 432.5 250, 432.5 276" fill="none" stroke="#8A8A8A" stroke-width="1.5" marker-end="url(#arr)" />
  <path d="M 702 224 C 702 250, 432.5 250, 432.5 276" fill="none" stroke="#8A8A8A" stroke-width="1.5" marker-end="url(#arr)" />
  <path d="M 432.5 332 C 432.5 358, 432.5 358, 432.5 384" fill="none" stroke="#8A8A8A" stroke-width="1.5" marker-end="url(#arr)" />
  <path d="M 432.5 440 C 432.5 466, 432.5 466, 432.5 492" fill="none" stroke="#8A8A8A" stroke-width="1.5" marker-end="url(#arr)" />
  <rect x="322" y="60" width="221" height="56" rx="10" fill="#FFFFFF" stroke="#6E8AA4" stroke-width="1.5" filter="url(#shadow)" />
  <rect x="322" y="68" width="3" height="40" rx="1.5" fill="#6E8AA4" />
  <circle cx="340" cy="88" r="11" fill="#6E8AA4" />
  <text x="340" y="92" text-anchor="middle" font-family="'Palatino Linotype', serif" font-size="10" font-weight="700" fill="#FAFAFA">1</text>
  <text x="356" y="92" font-family="'Palatino Linotype', 'Book Antiqua', Palatino, serif" font-size="12" fill="#3A3A3A" >Data Retrieval &amp; Validation</text>
  <rect x="40" y="168" width="227" height="56" rx="10" fill="#FFFFFF" stroke="#6E8AA4" stroke-width="1.5" filter="url(#shadow)" />
  <rect x="40" y="176" width="3" height="40" rx="1.5" fill="#6E8AA4" />
  <circle cx="58" cy="196" r="11" fill="#6E8AA4" />
  <text x="58" y="200" text-anchor="middle" font-family="'Palatino Linotype', serif" font-size="10" font-weight="700" fill="#FAFAFA">2</text>
  <text x="74" y="200" font-family="'Palatino Linotype', 'Book Antiqua', Palatino, serif" font-size="12" fill="#3A3A3A" >Daily Digest — All 30 Papers</text>
  <rect x="303" y="168" width="240" height="56" rx="10" fill="#FFFFFF" stroke="#6E8AA4" stroke-width="1.5" filter="url(#shadow)" />
  <rect x="303" y="176" width="3" height="40" rx="1.5" fill="#6E8AA4" />
  <circle cx="321" cy="196" r="11" fill="#6E8AA4" />
  <text x="321" y="200" text-anchor="middle" font-family="'Palatino Linotype', serif" font-size="10" font-weight="700" fill="#FAFAFA">3</text>
  <text x="337" y="200" font-family="'Palatino Linotype', 'Book Antiqua', Palatino, serif" font-size="12" fill="#3A3A3A" >In-Depth Analysis — Papers 1-5</text>
  <rect x="579" y="168" width="246" height="56" rx="10" fill="#FFFFFF" stroke="#6E8AA4" stroke-width="1.5" filter="url(#shadow)" />
  <rect x="579" y="176" width="3" height="40" rx="1.5" fill="#6E8AA4" />
  <circle cx="597" cy="196" r="11" fill="#6E8AA4" />
  <text x="597" y="200" text-anchor="middle" font-family="'Palatino Linotype', serif" font-size="10" font-weight="700" fill="#FAFAFA">4</text>
  <text x="613" y="200" font-family="'Palatino Linotype', 'Book Antiqua', Palatino, serif" font-size="12" fill="#3A3A3A" >In-Depth Analysis — Papers 6-10</text>
  <rect x="332.5" y="276" width="200" height="56" rx="10" fill="rgba(93,128,87,0.06)" stroke="#6E8AA4" stroke-width="2" stroke-dasharray="6,3" filter="url(#shadow)" />
  <rect x="332.5" y="284" width="3" height="40" rx="1.5" fill="#6E8AA4" />
  <circle cx="350.5" cy="304" r="11" fill="#6E8AA4" />
  <text x="350.5" y="308" text-anchor="middle" font-family="'Palatino Linotype', serif" font-size="10" font-weight="700" fill="#FAFAFA">5</text>
  <text x="366.5" y="308" font-family="'Palatino Linotype', 'Book Antiqua', Palatino, serif" font-size="12" fill="#3A3A3A" font-style='italic'>All Content Generated</text>
  <polygon points="516.5,298 522.5,304 516.5,310 510.5,304" fill="#5D8057" opacity="0.6" />
  <rect x="278.5" y="384" width="308" height="56" rx="10" fill="#FFFFFF" stroke="#6E8AA4" stroke-width="1.5" filter="url(#shadow)" />
  <rect x="278.5" y="392" width="3" height="40" rx="1.5" fill="#6E8AA4" />
  <circle cx="296.5" cy="412" r="11" fill="#6E8AA4" />
  <text x="296.5" y="416" text-anchor="middle" font-family="'Palatino Linotype', serif" font-size="10" font-weight="700" fill="#FAFAFA">6</text>
  <text x="312.5" y="416" font-family="'Palatino Linotype', 'Book Antiqua', Palatino, serif" font-size="12" fill="#3A3A3A" >Compilation, PDF Rendering &amp; Verification</text>
  <rect x="306.5" y="492" width="252" height="56" rx="10" fill="rgba(93,128,87,0.06)" stroke="#6E8AA4" stroke-width="2" stroke-dasharray="6,3" filter="url(#shadow)" />
  <rect x="306.5" y="500" width="3" height="40" rx="1.5" fill="#6E8AA4" />
  <circle cx="324.5" cy="520" r="11" fill="#6E8AA4" />
  <text x="324.5" y="524" text-anchor="middle" font-family="'Palatino Linotype', serif" font-size="10" font-weight="700" fill="#FAFAFA">7</text>
  <text x="340.5" y="524" font-family="'Palatino Linotype', 'Book Antiqua', Palatino, serif" font-size="12" fill="#3A3A3A" font-style='italic'>Pipeline Complete — Final Review</text>
  <polygon points="542.5,514 548.5,520 542.5,526 536.5,520" fill="#5D8057" opacity="0.6" />

  <!-- Legend -->
  <line x1="24" y1="608" x2="876" y2="608" stroke="#E0DCD8" stroke-width="1" />
  <rect x="24" y="618" width="60" height="22" rx="6" fill="#FFFFFF" stroke="#6E8AA4" stroke-width="1.5" />
  <text x="92" y="633" font-family="'Palatino Linotype', serif" font-size="11" fill="#8A8A8A">Task</text>
  <rect x="144" y="618" width="60" height="22" rx="6" fill="rgba(93,128,87,0.06)" stroke="#5D8057" stroke-width="2" stroke-dasharray="6,3" />
  <text x="212" y="633" font-family="'Palatino Linotype', serif" font-size="11" fill="#8A8A8A">Milestone</text>
  <line x1="294" y1="629" x2="334" y2="629" stroke="#8A8A8A" stroke-width="1.5" marker-end="url(#arr)" />
  <text x="342" y="633" font-family="'Palatino Linotype', serif" font-size="11" fill="#8A8A8A">Dependency</text>
  <line x1="424" y1="629" x2="464" y2="629" stroke="#C4A882" stroke-width="1.5" stroke-dasharray="6,4" marker-end="url(#arr-branch)" />
  <text x="472" y="633" font-family="'Palatino Linotype', serif" font-size="11" fill="#8A8A8A">Parallel branch</text>
</svg>
